<svg width="624" height="130" viewBox="0 0 624 130" fill="none" xmlns="http://www.w3.org/2000/svg">
<rect y="9.5" width="624" height="111" rx="10" fill="#F4F6F5"/>
<path d="M250.416 54.036C250.629 53.652 250.939 53.396 251.344 53.268C251.749 53.14 252.251 53.076 252.848 53.076C253.467 53.076 253.957 53.1293 254.32 53.236C254.704 53.3427 254.981 53.4707 255.152 53.62C255.344 53.7693 255.483 53.9933 255.568 54.292C255.696 54.6333 255.76 55.1773 255.76 55.924V73.684C255.76 74.196 255.739 74.5693 255.696 74.804C255.675 75.0387 255.579 75.316 255.408 75.636C255.109 76.212 254.277 76.5 252.912 76.5C252.08 76.5 251.504 76.436 251.184 76.308C250.864 76.18 250.597 75.9773 250.384 75.7C245.584 69.3 242.427 65.1187 240.912 63.156V73.684C240.912 74.196 240.891 74.5693 240.848 74.804C240.827 75.0387 240.731 75.316 240.56 75.636C240.261 76.212 239.429 76.5 238.064 76.5C236.741 76.5 235.931 76.212 235.632 75.636C235.461 75.316 235.355 75.028 235.312 74.772C235.291 74.516 235.28 74.1427 235.28 73.652V55.796C235.28 54.9853 235.376 54.3987 235.568 54.036C235.781 53.652 236.091 53.396 236.496 53.268C236.901 53.14 237.424 53.076 238.064 53.076C238.704 53.076 239.205 53.14 239.568 53.268C239.952 53.3747 240.219 53.5027 240.368 53.652C240.453 53.716 240.699 53.9933 241.104 54.484C245.605 60.6067 248.613 64.6493 250.128 66.612V55.796C250.128 54.9853 250.224 54.3987 250.416 54.036ZM274.567 66.068C274.567 67.3693 274.237 68.34 273.575 68.98C272.935 69.5987 272.221 69.908 271.431 69.908H263.847C263.847 70.5053 264.199 71.0067 264.903 71.412C265.607 71.8173 266.311 72.02 267.015 72.02C268.253 72.02 269.223 71.892 269.927 71.636L270.279 71.508C270.791 71.2733 271.218 71.156 271.559 71.156C272.242 71.156 272.829 71.636 273.319 72.596C273.597 73.172 273.735 73.6627 273.735 74.068C273.735 75.9667 271.463 76.916 266.919 76.916C265.341 76.916 263.933 76.6493 262.695 76.116C261.479 75.5613 260.53 74.836 259.847 73.94C258.503 72.212 257.831 70.2813 257.831 68.148C257.831 65.46 258.695 63.316 260.423 61.716C262.173 60.0947 264.349 59.284 266.951 59.284C269.917 59.284 272.093 60.3293 273.479 62.42C274.205 63.5293 274.567 64.7453 274.567 66.068ZM267.815 66.996C268.626 66.996 269.031 66.6547 269.031 65.972C269.031 65.4813 268.839 65.0867 268.455 64.788C268.093 64.4893 267.559 64.34 266.855 64.34C266.173 64.34 265.49 64.628 264.807 65.204C264.125 65.7587 263.783 66.356 263.783 66.996H267.815ZM297.254 59.764C298.62 60.3613 299.302 61.0973 299.302 61.972C299.302 62.3347 299.132 62.9213 298.79 63.732C298.449 64.5213 298.161 65.2147 297.926 65.812L294.406 74.388C294.086 75.3267 293.553 75.988 292.806 76.372C292.486 76.5213 292.081 76.596 291.59 76.596C291.1 76.596 290.62 76.4147 290.15 76.052C289.702 75.668 289.404 75.284 289.254 74.9L288.998 74.356C288.828 73.9293 288.198 72.2653 287.11 69.364C286.897 69.876 286.577 70.7187 286.15 71.892C285.745 73.044 285.478 73.7693 285.35 74.068C285.244 74.3453 285.169 74.5373 285.126 74.644C285.105 74.7293 285.02 74.9 284.87 75.156C284.721 75.412 284.55 75.636 284.358 75.828C283.846 76.34 283.26 76.596 282.598 76.596C281.937 76.596 281.382 76.4147 280.934 76.052C280.486 75.668 280.188 75.284 280.038 74.9L275.206 63.124C274.993 62.484 274.886 62.068 274.886 61.876C274.886 61.0227 275.494 60.3507 276.71 59.86C277.393 59.5827 277.948 59.444 278.374 59.444C278.801 59.444 279.142 59.54 279.398 59.732C279.676 59.9027 279.868 60.084 279.974 60.276C280.081 60.4467 280.166 60.628 280.23 60.82C280.593 61.6733 281.35 63.6787 282.502 66.836L284.39 61.652C284.518 61.2253 284.753 60.852 285.094 60.532C285.713 59.9133 286.342 59.604 286.982 59.604C287.622 59.604 288.166 59.7747 288.614 60.116C289.084 60.4573 289.404 60.7987 289.574 61.14L289.83 61.684C290.897 64.6707 291.526 66.3773 291.718 66.804L293.67 61.492C294.182 60.1267 294.95 59.444 295.974 59.444C296.38 59.444 296.806 59.5507 297.254 59.764ZM321.379 62.356H327.011C328.163 62.3987 328.867 62.6973 329.123 63.252C329.336 63.6573 329.443 64.2547 329.443 65.044V72.084C329.443 72.7667 329.144 73.4173 328.547 74.036C326.755 75.892 324.067 76.82 320.483 76.82C317.304 76.82 314.542 75.6253 312.195 73.236C309.848 70.8253 308.675 67.924 308.675 64.532C308.675 61.14 309.87 58.3133 312.259 56.052C314.648 53.7693 317.464 52.628 320.707 52.628C323.224 52.628 325.603 53.46 327.843 55.124C328.419 55.5507 328.707 56.0307 328.707 56.564C328.707 57.076 328.462 57.6733 327.971 58.356C327.139 59.4867 326.382 60.052 325.699 60.052C325.294 60.052 324.643 59.764 323.747 59.188C322.851 58.5907 321.784 58.292 320.547 58.292C318.926 58.292 317.486 58.868 316.227 60.02C314.968 61.1507 314.339 62.644 314.339 64.5C314.339 66.3347 314.979 67.9027 316.259 69.204C317.539 70.484 318.99 71.124 320.611 71.124C321.784 71.124 322.84 70.932 323.779 70.548V67.06H321.251C320.59 67.06 320.12 66.9747 319.843 66.804C319.566 66.6333 319.384 66.388 319.299 66.068C319.214 65.7267 319.171 65.2787 319.171 64.724C319.171 64.148 319.214 63.6893 319.299 63.348C319.406 63.0067 319.587 62.772 319.843 62.644C320.227 62.452 320.739 62.356 321.379 62.356ZM342.943 61.428C343.071 60.2333 343.913 59.636 345.471 59.636C346.303 59.636 346.921 59.7 347.327 59.828C347.732 59.956 348.009 60.18 348.159 60.5C348.329 60.82 348.425 61.108 348.447 61.364C348.489 61.5987 348.511 61.9613 348.511 62.452V73.652C348.511 74.1427 348.489 74.516 348.447 74.772C348.425 75.0067 348.34 75.284 348.191 75.604C347.892 76.1587 347.156 76.436 345.983 76.436C344.831 76.436 344.052 76.2973 343.647 76.02C343.263 75.7213 343.039 75.2947 342.975 74.74C342.185 75.8707 340.863 76.436 339.007 76.436C337.172 76.436 335.465 75.5933 333.887 73.908C332.308 72.2227 331.519 70.2707 331.519 68.052C331.519 65.812 332.308 63.86 333.887 62.196C335.487 60.5107 337.236 59.668 339.135 59.668C339.86 59.668 340.521 59.796 341.119 60.052C341.716 60.308 342.132 60.5533 342.367 60.788C342.601 61.0013 342.793 61.2147 342.943 61.428ZM337.119 68.084C337.119 68.788 337.396 69.428 337.951 70.004C338.505 70.5587 339.177 70.836 339.967 70.836C340.756 70.836 341.407 70.548 341.919 69.972C342.452 69.396 342.719 68.7667 342.719 68.084C342.719 67.38 342.463 66.7293 341.951 66.132C341.46 65.5347 340.788 65.236 339.935 65.236C339.103 65.236 338.42 65.5347 337.887 66.132C337.375 66.7293 337.119 67.38 337.119 68.084ZM356.565 61.876C357.568 60.3613 358.773 59.604 360.181 59.604C362.357 59.604 363.979 60.532 365.045 62.388C365.28 62.068 365.557 61.7373 365.877 61.396C366.219 61.0333 366.752 60.6493 367.477 60.244C368.203 59.8173 368.949 59.604 369.717 59.604C371.424 59.604 372.853 60.2653 374.005 61.588C375.157 62.8893 375.733 65.0547 375.733 68.084V73.684C375.733 74.1747 375.712 74.548 375.669 74.804C375.648 75.0387 375.552 75.316 375.381 75.636C375.104 76.212 374.283 76.5 372.917 76.5C371.573 76.5 370.752 76.2013 370.453 75.604C370.304 75.284 370.208 75.0067 370.165 74.772C370.144 74.516 370.133 74.1427 370.133 73.652V68.052C370.133 66.196 369.472 65.268 368.149 65.268C367.403 65.268 366.891 65.5133 366.613 66.004C366.357 66.4947 366.229 67.188 366.229 68.084V73.684C366.229 74.196 366.208 74.5693 366.165 74.804C366.144 75.0387 366.048 75.316 365.877 75.636C365.579 76.212 364.747 76.5 363.381 76.5C362.037 76.5 361.216 76.2013 360.917 75.604C360.768 75.284 360.672 75.0067 360.629 74.772C360.608 74.516 360.597 74.1427 360.597 73.652V68.052C360.597 66.196 359.936 65.268 358.613 65.268C357.333 65.268 356.693 66.196 356.693 68.052V73.716C356.693 74.2067 356.672 74.58 356.629 74.836C356.608 75.0707 356.512 75.348 356.341 75.668C356.021 76.2227 355.189 76.5 353.845 76.5C352.501 76.5 351.68 76.212 351.381 75.636C351.232 75.316 351.136 75.0387 351.093 74.804C351.072 74.5693 351.061 74.196 351.061 73.684V62.42C351.061 61.9293 351.072 61.5667 351.093 61.332C351.136 61.076 351.243 60.7987 351.413 60.5C351.733 59.924 352.491 59.636 353.685 59.636C354.88 59.636 355.659 59.828 356.021 60.212C356.384 60.596 356.565 61.1507 356.565 61.876ZM394.536 66.068C394.536 67.3693 394.205 68.34 393.544 68.98C392.904 69.5987 392.189 69.908 391.4 69.908H383.816C383.816 70.5053 384.168 71.0067 384.872 71.412C385.576 71.8173 386.28 72.02 386.984 72.02C388.221 72.02 389.192 71.892 389.896 71.636L390.248 71.508C390.76 71.2733 391.187 71.156 391.528 71.156C392.211 71.156 392.797 71.636 393.288 72.596C393.565 73.172 393.704 73.6627 393.704 74.068C393.704 75.9667 391.432 76.916 386.888 76.916C385.309 76.916 383.901 76.6493 382.664 76.116C381.448 75.5613 380.499 74.836 379.816 73.94C378.472 72.212 377.8 70.2813 377.8 68.148C377.8 65.46 378.664 63.316 380.392 61.716C382.141 60.0947 384.317 59.284 386.92 59.284C389.885 59.284 392.061 60.3293 393.448 62.42C394.173 63.5293 394.536 64.7453 394.536 66.068ZM387.784 66.996C388.595 66.996 389 66.6547 389 65.972C389 65.4813 388.808 65.0867 388.424 64.788C388.061 64.4893 387.528 64.34 386.824 64.34C386.141 64.34 385.459 64.628 384.776 65.204C384.093 65.7587 383.752 66.356 383.752 66.996H387.784Z" fill="black"/>
</svg>
